<?xml version="1.0" encoding="UTF-8"?>
<svg id="Layer_1" data-name="Layer 1" xmlns="http://www.w3.org/2000/svg" viewBox="0 0 2400 1080">
  <defs>
    <style>
      .cls-1 {
        fill: #225ca0;
      }

      .cls-2 {
        fill: #207d9c;
        opacity: .6;
      }
    </style>
  </defs>
  <polygon class="cls-2" points="-12 275.78 3.74 275.78 39.7 249.89 67.5 273.28 138.25 273.28 174.33 252.5 201.89 278.3 217.03 278.3 227.46 198.01 233.22 198.16 238.42 275.78 258.64 275.78 284.5 248.92 301.76 275.78 412.2 275.78 428.89 265.38 453.96 277.06 477.49 277.06 485.33 189.33 491.13 189.17 502.74 275.97 531.48 265.46 554.69 275.03 638.64 275.03 674.71 254.25 702.28 280.04 717.42 280.04 727.85 199.75 733.61 199.9 738.81 277.53 759.02 277.53 784.88 250.67 802.15 277.53 912.59 277.53 929.28 267.13 954.35 278.81 977.87 278.81 985.72 191.08 991.52 190.92 1003.12 277.71 1031.87 267.2 1068 287.97 1065.11 293.07 1031.31 273.63 998.29 285.71 989.19 217.59 983.22 284.66 953.05 284.66 929.7 273.76 914.2 283.43 798.98 283.43 783.97 260.08 761.46 283.43 733.35 283.43 729.8 229.85 722.53 285.93 700.01 285.93 673.87 261.5 640.18 280.91 553.26 280.91 530.93 271.89 497.9 283.96 488.8 215.84 482.83 282.92 452.67 282.92 429.31 272.01 413.82 281.68 298.59 281.68 283.58 258.33 261.08 281.68 232.96 281.68 229.42 228.1 222.14 284.19 199.63 284.19 173.48 259.75 139.79 279.17 65.38 279.17 39.43 257.32 5.59 281.68 -12 281.68 -12 275.78"/>
  <polygon class="cls-2" points="-12 524.68 14.67 524.68 26.28 515.97 44.22 530.66 60.76 528.91 67.06 457.21 71.69 457 85 527.89 108.69 509.59 124.5 530.7 213.21 530.7 242.1 509.91 264.42 528.7 321.25 528.7 350.22 512.01 372.36 532.73 384.52 532.73 392.9 468.24 397.53 468.36 401.7 530.7 417.94 530.7 438.71 509.13 452.58 530.7 541.28 530.7 554.69 522.35 574.82 531.74 593.71 531.74 600.01 461.28 604.68 461.15 613.99 530.86 637.08 522.42 655.72 530.1 723.15 530.1 752.12 513.42 774.26 534.13 786.42 534.13 794.8 469.64 799.43 469.76 803.6 532.11 819.84 532.11 840.61 510.54 854.47 532.11 943.18 532.11 956.59 523.76 976.72 533.14 995.61 533.14 1001.91 462.67 1006.57 462.55 1015.89 532.26 1038.98 523.82 1068 540.5 1065.68 544.59 1038.54 528.98 1012.01 538.68 1004.7 483.97 999.9 537.84 975.67 537.84 956.92 529.08 944.47 536.85 851.93 536.85 839.87 518.09 821.8 536.85 799.21 536.85 796.37 493.81 790.53 538.86 772.44 538.86 751.44 519.24 724.39 534.83 654.57 534.83 636.64 527.58 610.11 537.28 602.8 482.57 598.01 536.44 573.78 536.44 555.02 527.68 542.58 535.45 450.03 535.45 437.98 516.69 419.9 535.45 397.32 535.45 394.47 492.41 388.63 537.46 370.54 537.46 349.55 517.83 322.49 533.43 262.72 533.43 241.88 515.88 214.7 535.45 122.15 535.45 107.77 516.23 81.82 536.28 70.25 474.55 65.09 533.22 42.78 535.54 26.15 521.95 16.21 529.37 -12 529.37 -12 524.68"/>
  <polygon class="cls-2" points="2398.1 267.2 2369.35 277.71 2357.75 190.92 2351.95 191.08 2344.1 278.81 2320.58 278.81 2295.52 267.13 2278.82 277.53 2168.38 277.53 2151.12 250.67 2125.26 277.53 2105.04 277.53 2099.84 199.9 2094.08 199.75 2083.65 280.04 2068.51 280.04 2040.94 254.25 2004.87 275.03 1920.92 275.03 1897.71 265.46 1868.97 275.97 1857.36 189.17 1851.56 189.33 1843.72 277.06 1820.19 277.06 1795.13 265.38 1778.43 275.78 1667.99 275.78 1650.73 248.92 1624.87 275.78 1604.65 275.78 1599.45 198.16 1593.69 198.01 1583.26 278.3 1568.12 278.3 1540.56 252.5 1504.49 273.28 1433.73 273.28 1405.93 249.89 1369.97 275.78 1354.23 275.78 1354.23 281.68 1371.82 281.68 1405.67 257.32 1431.61 279.17 1506.02 279.17 1539.71 259.75 1565.86 284.19 1588.38 284.19 1595.65 228.1 1599.19 281.68 1627.31 281.68 1649.81 258.33 1664.82 281.68 1780.05 281.68 1795.55 272.01 1818.9 282.92 1849.06 282.92 1855.03 215.84 1864.13 283.96 1897.16 271.89 1919.49 280.91 2006.41 280.91 2040.1 261.5 2066.24 285.93 2088.76 285.93 2096.04 229.85 2099.58 283.43 2127.7 283.43 2150.2 260.08 2165.21 283.43 2280.43 283.43 2295.93 273.76 2319.28 284.66 2349.45 284.66 2355.42 217.59 2364.52 285.71 2397.55 273.63 2431.34 293.07 2434.23 287.97 2398.1 267.2"/>
  <polygon class="cls-2" points="1354.23 524.68 1380.9 524.68 1392.51 515.97 1410.45 530.66 1426.99 528.91 1433.29 457.21 1437.92 457 1451.23 527.89 1474.93 509.59 1490.73 530.7 1579.44 530.7 1608.33 509.91 1630.66 528.7 1687.48 528.7 1716.46 512.01 1738.6 532.73 1750.75 532.73 1759.13 468.24 1763.76 468.36 1767.94 530.7 1784.17 530.7 1804.94 509.13 1818.81 530.7 1907.51 530.7 1920.92 522.35 1941.05 531.74 1959.95 531.74 1966.24 461.28 1970.91 461.15 1980.22 530.86 2003.31 522.42 2021.95 530.1 2089.38 530.1 2118.35 513.42 2140.5 534.13 2152.65 534.13 2161.03 469.64 2165.66 469.76 2169.83 532.11 2186.07 532.11 2206.84 510.54 2220.71 532.11 2309.41 532.11 2322.82 523.76 2342.95 533.14 2361.84 533.14 2368.14 462.67 2372.8 462.55 2382.12 532.26 2405.21 523.82 2434.23 540.5 2431.91 544.59 2404.77 528.98 2378.24 538.68 2370.93 483.97 2366.14 537.84 2341.91 537.84 2323.15 529.08 2310.7 536.85 2218.16 536.85 2206.1 518.09 2188.03 536.85 2165.45 536.85 2162.6 493.81 2156.76 538.86 2138.67 538.86 2117.68 519.24 2090.62 534.83 2020.8 534.83 2002.87 527.58 1976.34 537.28 1969.03 482.57 1964.24 536.44 1940.01 536.44 1921.26 527.68 1908.81 535.45 1816.26 535.45 1804.21 516.69 1786.13 535.45 1763.55 535.45 1760.71 492.41 1754.86 537.46 1736.77 537.46 1715.78 517.83 1688.72 533.43 1628.95 533.43 1608.12 515.88 1580.93 535.45 1488.38 535.45 1474 516.23 1448.05 536.28 1436.48 474.55 1431.32 533.22 1409.01 535.54 1392.38 521.95 1382.44 529.37 1354.23 529.37 1354.23 524.68"/>
  <path class="cls-1" d="M2424.75,75.06v-2.24h-84.39V0h-2.22v72.82h-51.07V0h-2.22v72.82h-51.07V0h-2.23v72.82h-51.07V0h-2.22v72.82h-51.07V0h-2.23v72.82h-51.07V0h-2.22v72.82h-51.08V0h-2.22v72.82h-51.08V0h-2.22v72.82h-51.07V0h-2.22v72.82h-51.07V0h-2.22v72.82h-51.08V0h-2.22v72.82h-51.08V0h-2.22v72.82h-51.08V0h-2.22v72.82h-51.08V0h-2.22v72.82h-51.08V0h-2.22v72.82h-51.07V0h-2.22v72.82h-51.08V0h-2.22v72.82h-51.08V0h-2.22v72.82h-65.5V0h-2.22v72.82h-51.08V0h-2.22v72.82h-51.08V0h-2.22v72.82h-51.08V0h-2.22v72.82h-51.07V0h-2.22v72.82h-51.08V0h-2.22v72.82h-51.08V0h-2.22v72.82h-63.35V0h-2.22v72.82h-51.07V0h-2.22v72.82h-51.07V0h-2.23v72.82h-51.07V0h-2.22v72.82h-51.07V0h-2.23v72.82h-51.07V0h-2.22v72.82h-51.08V0h-2.22v72.82h-51.08V0h-2.22v72.82h-51.07V0h-2.22v72.82h-51.07V0h-2.22v72.82h-51.08V0h-2.22v72.82h-51.08V0h-2.22v72.82h-51.08V0h-2.22v72.82h-51.08V0h-2.22v72.82h-51.08V0h-2.22v72.82h-51.07V0h-2.22v72.82h-51.08V0h-2.22v72.82h-51.08V0h-2.22v72.82H-4.8v2.24h77.73v51.54H-4.8v2.24h77.73v51.54H-4.8v2.24h77.73v51.54H-4.8v2.24h77.73v51.54H-4.8v2.24h77.73v51.54H-4.8v2.24h77.73v51.54H-4.8v2.24h77.73v51.53H-4.8v2.24h77.73v51.54H-4.8v2.24h77.73v51.54H-4.8v2.24h77.73v51.53H-4.8v2.24h77.73v51.53H-4.8v2.24h77.73v51.54H-4.8v2.24h77.73v51.54H-4.8v2.24h77.73v51.53H-4.8v2.24h77.73v51.54H-4.8v2.24h77.73v51.53H-4.8v2.24h77.73v51.54H-4.8v2.24h77.73v90.75h2.22v-90.75h51.08v90.75h2.22v-90.75h51.08v90.75h2.22v-90.75h51.07v90.75h2.22v-90.75h51.08v90.75h2.22v-90.75h51.08v90.75h2.22v-90.75h51.08v90.75h2.22v-90.75h51.08v90.75h2.22v-90.75h51.08v90.75h2.22v-90.75h51.07v90.75h2.22v-90.75h51.07v90.75h2.22v-90.75h51.08v90.75h2.22v-90.75h51.08v90.75h2.22v-90.75h51.07v90.75h2.23v-90.75h51.07v90.75h2.22v-90.75h51.07v90.75h2.23v-90.75h51.07v90.75h2.22v-90.75h51.07v90.75h2.22v-90.75h63.35v90.75h2.22v-90.75h51.08v90.75h2.22v-90.75h51.08v90.75h2.22v-90.75h51.07v90.75h2.22v-90.75h51.08v90.75h2.22v-90.75h51.08v90.75h2.22v-90.75h51.08v90.75h2.22v-90.75h65.5v90.75h2.22v-90.75h51.08v90.75h2.22v-90.75h51.08v90.75h2.22v-90.75h51.07v90.75h2.22v-90.75h51.08v90.75h2.22v-90.75h51.08v90.75h2.22v-90.75h51.08v90.75h2.22v-90.75h51.08v90.75h2.22v-90.75h51.08v90.75h2.22v-90.75h51.07v90.75h2.22v-90.75h51.07v90.75h2.22v-90.75h51.08v90.75h2.22v-90.75h51.08v90.75h2.22v-90.75h51.07v90.75h2.23v-90.75h51.07v90.75h2.22v-90.75h51.07v90.75h2.23v-90.75h51.07v90.75h2.22v-90.75h51.07v90.75h2.22v-90.75h84.39v-2.24h-84.39v-51.54h84.39v-2.24h-84.39v-51.53h84.39v-2.24h-84.39v-51.54h84.39v-2.24h-84.39v-51.53h84.39v-2.24h-84.39v-51.54h84.39v-2.24h-84.39v-51.54h84.39v-2.24h-84.39v-51.53h84.39v-2.24h-84.39v-51.53h84.39v-2.24h-84.39v-51.54h84.39v-2.24h-84.39v-51.54h84.39v-2.24h-84.39v-51.53h84.39v-2.24h-84.39v-51.54h84.39v-2.24h-84.39v-51.54h84.39v-2.24h-84.39v-51.54h84.39v-2.24h-84.39v-51.54h84.39v-2.24h-84.39v-51.54h84.39v-2.24h-84.39v-51.54h84.39ZM2284.84,75.06v51.54h-51.07v-51.54h51.07ZM554.83,505.27h51.07v51.54h-51.07v-51.54ZM552.61,556.8h-51.07v-51.54h51.07v51.54ZM608.12,505.27h51.08v51.54h-51.08v-51.54ZM661.42,505.27h51.08v51.54h-51.08v-51.54ZM714.72,505.27h51.07v51.54h-51.07v-51.54ZM768.02,505.27h51.07v51.54h-51.07v-51.54ZM821.32,505.27h51.07v51.54h-51.07v-51.54ZM874.62,505.27h51.07v51.54h-51.07v-51.54ZM927.91,505.27h51.07v51.54h-51.07v-51.54ZM981.21,505.27h63.35v51.54h-63.35v-51.54ZM1046.78,505.27h51.08v51.54h-51.08v-51.54ZM1100.08,505.27h51.08v51.54h-51.08v-51.54ZM1153.38,505.27h51.07v51.54h-51.07v-51.54ZM1206.67,505.27h51.08v51.54h-51.08v-51.54ZM1259.97,505.27h51.08v51.54h-51.08v-51.54ZM1313.27,505.27h51.08v51.54h-51.08v-51.54ZM1366.57,505.27h65.5v51.54h-65.5v-51.54ZM1434.3,505.27h51.08v51.54h-51.08v-51.54ZM1487.59,505.27h51.08v51.54h-51.08v-51.54ZM1540.89,505.27h51.07v51.54h-51.07v-51.54ZM1594.19,505.27h51.08v51.54h-51.08v-51.54ZM1647.49,505.27h51.08v51.54h-51.08v-51.54ZM1700.79,505.27h51.08v51.54h-51.08v-51.54ZM1754.08,505.27h51.08v51.54h-51.08v-51.54ZM1807.38,505.27h51.08v51.54h-51.08v-51.54ZM1860.68,505.27h51.07v51.54h-51.07v-51.54ZM1860.68,503.03v-51.54h51.07v51.54h-51.07ZM1858.46,503.03h-51.08v-51.54h51.08v51.54ZM1805.16,503.03h-51.08v-51.54h51.08v51.54ZM1751.86,503.03h-51.08v-51.54h51.08v51.54ZM1698.57,503.03h-51.08v-51.54h51.08v51.54ZM1645.26,503.03h-51.08v-51.54h51.08v51.54ZM1591.97,503.03h-51.07v-51.54h51.07v51.54ZM1538.67,503.03h-51.08v-51.54h51.08v51.54ZM1485.37,503.03h-51.08v-51.54h51.08v51.54ZM1432.07,503.03h-65.5v-51.54h65.5v51.54ZM1364.35,503.03h-51.08v-51.54h51.08v51.54ZM1311.05,503.03h-51.08v-51.54h51.08v51.54ZM1257.75,503.03h-51.08v-51.54h51.08v51.54ZM1204.45,503.03h-51.07v-51.54h51.07v51.54ZM1151.16,503.03h-51.08v-51.54h51.08v51.54ZM1097.86,503.03h-51.08v-51.54h51.08v51.54ZM1044.56,503.03h-63.35v-51.54h63.35v51.54ZM978.99,503.03h-51.07v-51.54h51.07v51.54ZM925.69,503.03h-51.07v-51.54h51.07v51.54ZM872.39,503.03h-51.07v-51.54h51.07v51.54ZM819.09,503.03h-51.07v-51.54h51.07v51.54ZM765.8,503.03h-51.07v-51.54h51.07v51.54ZM712.5,503.03h-51.08v-51.54h51.08v51.54ZM659.2,503.03h-51.08v-51.54h51.08v51.54ZM605.91,503.03h-51.07v-51.54h51.07v51.54ZM552.61,503.03h-51.07v-51.54h51.07v51.54ZM499.31,503.03h-51.08v-51.54h51.08v51.54ZM499.31,505.27v51.54h-51.08v-51.54h51.08ZM499.31,559.05v51.53h-51.08v-51.53h51.08ZM501.54,559.05h51.07v51.53h-51.07v-51.53ZM554.83,559.05h51.07v51.53h-51.07v-51.53ZM608.12,559.05h51.08v51.53h-51.08v-51.53ZM661.42,559.05h51.08v51.53h-51.08v-51.53ZM714.72,559.05h51.07v51.53h-51.07v-51.53ZM768.02,559.05h51.07v51.53h-51.07v-51.53ZM821.32,559.05h51.07v51.53h-51.07v-51.53ZM874.62,559.05h51.07v51.53h-51.07v-51.53ZM927.91,559.05h51.07v51.53h-51.07v-51.53ZM981.21,559.05h63.35v51.53h-63.35v-51.53ZM1046.78,559.05h51.08v51.53h-51.08v-51.53ZM1100.08,559.05h51.08v51.53h-51.08v-51.53ZM1153.38,559.05h51.07v51.53h-51.07v-51.53ZM1206.67,559.05h51.08v51.53h-51.08v-51.53ZM1259.97,559.05h51.08v51.53h-51.08v-51.53ZM1313.27,559.05h51.08v51.53h-51.08v-51.53ZM1366.57,559.05h65.5v51.53h-65.5v-51.53ZM1434.3,559.05h51.08v51.53h-51.08v-51.53ZM1487.59,559.05h51.08v51.53h-51.08v-51.53ZM1540.89,559.05h51.07v51.53h-51.07v-51.53ZM1594.19,559.05h51.08v51.53h-51.08v-51.53ZM1647.49,559.05h51.08v51.53h-51.08v-51.53ZM1700.79,559.05h51.08v51.53h-51.08v-51.53ZM1754.08,559.05h51.08v51.53h-51.08v-51.53ZM1807.38,559.05h51.08v51.53h-51.08v-51.53ZM1860.68,559.05h51.07v51.53h-51.07v-51.53ZM1913.98,559.05h51.07v51.53h-51.07v-51.53ZM1913.98,556.8v-51.54h51.07v51.54h-51.07ZM1913.98,503.03v-51.54h51.07v51.54h-51.07ZM1913.98,449.25v-51.53h51.07v51.53h-51.07ZM1911.76,449.25h-51.07v-51.53h51.07v51.53ZM1858.46,449.25h-51.08v-51.53h51.08v51.53ZM1805.16,449.25h-51.08v-51.53h51.08v51.53ZM1751.86,449.25h-51.08v-51.53h51.08v51.53ZM1698.57,449.25h-51.08v-51.53h51.08v51.53ZM1645.26,449.25h-51.08v-51.53h51.08v51.53ZM1591.97,449.25h-51.07v-51.53h51.07v51.53ZM1538.67,449.25h-51.08v-51.53h51.08v51.53ZM1485.37,449.25h-51.08v-51.53h51.08v51.53ZM1432.07,449.25h-65.5v-51.53h65.5v51.53ZM1364.35,449.25h-51.08v-51.53h51.08v51.53ZM1311.05,449.25h-51.08v-51.53h51.08v51.53ZM1257.75,449.25h-51.08v-51.53h51.08v51.53ZM1204.45,449.25h-51.07v-51.53h51.07v51.53ZM1151.16,449.25h-51.08v-51.53h51.08v51.53ZM1097.86,449.25h-51.08v-51.53h51.08v51.53ZM1044.56,449.25h-63.35v-51.53h63.35v51.53ZM978.99,449.25h-51.07v-51.53h51.07v51.53ZM925.69,449.25h-51.07v-51.53h51.07v51.53ZM872.39,449.25h-51.07v-51.53h51.07v51.53ZM819.09,449.25h-51.07v-51.53h51.07v51.53ZM765.8,449.25h-51.07v-51.53h51.07v51.53ZM712.5,449.25h-51.08v-51.53h51.08v51.53ZM659.2,449.25h-51.08v-51.53h51.08v51.53ZM605.91,449.25h-51.07v-51.53h51.07v51.53ZM552.61,449.25h-51.07v-51.53h51.07v51.53ZM499.31,449.25h-51.08v-51.53h51.08v51.53ZM446.01,449.25h-51.08v-51.53h51.08v51.53ZM446.01,451.49v51.54h-51.08v-51.54h51.08ZM446.01,505.27v51.54h-51.08v-51.54h51.08ZM446.01,559.05v51.53h-51.08v-51.53h51.08ZM446.01,612.82v51.53h-51.08v-51.53h51.08ZM448.23,612.82h51.08v51.53h-51.08v-51.53ZM501.54,612.82h51.07v51.53h-51.07v-51.53ZM554.83,612.82h51.07v51.53h-51.07v-51.53ZM608.12,612.82h51.08v51.53h-51.08v-51.53ZM661.42,612.82h51.08v51.53h-51.08v-51.53ZM714.72,612.82h51.07v51.53h-51.07v-51.53ZM768.02,612.82h51.07v51.53h-51.07v-51.53ZM821.32,612.82h51.07v51.53h-51.07v-51.53ZM874.62,612.82h51.07v51.53h-51.07v-51.53ZM927.91,612.82h51.07v51.53h-51.07v-51.53ZM981.21,612.82h63.35v51.53h-63.35v-51.53ZM1046.78,612.82h51.08v51.53h-51.08v-51.53ZM1100.08,612.82h51.08v51.53h-51.08v-51.53ZM1153.38,612.82h51.07v51.53h-51.07v-51.53ZM1206.67,612.82h51.08v51.53h-51.08v-51.53ZM1259.97,612.82h51.08v51.53h-51.08v-51.53ZM1313.27,612.82h51.08v51.53h-51.08v-51.53ZM1366.57,612.82h65.5v51.53h-65.5v-51.53ZM1434.3,612.82h51.08v51.53h-51.08v-51.53ZM1487.59,612.82h51.08v51.53h-51.08v-51.53ZM1540.89,612.82h51.07v51.53h-51.07v-51.53ZM1594.19,612.82h51.08v51.53h-51.08v-51.53ZM1647.49,612.82h51.08v51.53h-51.08v-51.53ZM1700.79,612.82h51.08v51.53h-51.08v-51.53ZM1754.08,612.82h51.08v51.53h-51.08v-51.53ZM1807.38,612.82h51.08v51.53h-51.08v-51.53ZM1860.68,612.82h51.07v51.53h-51.07v-51.53ZM1913.98,612.82h51.07v51.53h-51.07v-51.53ZM1967.27,612.82h51.08v51.53h-51.08v-51.53ZM1967.27,610.58v-51.53h51.08v51.53h-51.08ZM1967.27,556.8v-51.54h51.08v51.54h-51.08ZM1967.27,503.03v-51.54h51.08v51.54h-51.08ZM1967.27,449.25v-51.53h51.08v51.53h-51.08ZM1967.27,395.48v-51.54h51.08v51.54h-51.08ZM1965.05,395.48h-51.07v-51.54h51.07v51.54ZM1911.76,395.48h-51.07v-51.54h51.07v51.54ZM1858.46,395.48h-51.08v-51.54h51.08v51.54ZM1805.16,395.48h-51.08v-51.54h51.08v51.54ZM1751.86,395.48h-51.08v-51.54h51.08v51.54ZM1698.57,395.48h-51.08v-51.54h51.08v51.54ZM1645.26,395.48h-51.08v-51.54h51.08v51.54ZM1591.97,395.48h-51.07v-51.54h51.07v51.54ZM1538.67,395.48h-51.08v-51.54h51.08v51.54ZM1485.37,395.48h-51.08v-51.54h51.08v51.54ZM1432.07,395.48h-65.5v-51.54h65.5v51.54ZM1364.35,395.48h-51.08v-51.54h51.08v51.54ZM1311.05,395.48h-51.08v-51.54h51.08v51.54ZM1257.75,395.48h-51.08v-51.54h51.08v51.54ZM1204.45,395.48h-51.07v-51.54h51.07v51.54ZM1151.16,395.48h-51.08v-51.54h51.08v51.54ZM1097.86,395.48h-51.08v-51.54h51.08v51.54ZM1044.56,395.48h-63.35v-51.54h63.35v51.54ZM978.99,395.48h-51.07v-51.54h51.07v51.54ZM925.69,395.48h-51.07v-51.54h51.07v51.54ZM872.39,395.48h-51.07v-51.54h51.07v51.54ZM819.09,395.48h-51.07v-51.54h51.07v51.54ZM765.8,395.48h-51.07v-51.54h51.07v51.54ZM712.5,395.48h-51.08v-51.54h51.08v51.54ZM659.2,395.48h-51.08v-51.54h51.08v51.54ZM605.91,395.48h-51.07v-51.54h51.07v51.54ZM552.61,395.48h-51.07v-51.54h51.07v51.54ZM499.31,395.48h-51.08v-51.54h51.08v51.54ZM446.01,395.48h-51.08v-51.54h51.08v51.54ZM392.72,395.48h-51.08v-51.54h51.08v51.54ZM392.72,397.72v51.53h-51.08v-51.53h51.08ZM392.72,451.49v51.54h-51.08v-51.54h51.08ZM392.72,505.27v51.54h-51.08v-51.54h51.08ZM392.72,559.05v51.53h-51.08v-51.53h51.08ZM392.72,612.82v51.53h-51.08v-51.53h51.08ZM392.72,666.59v51.54h-51.08v-51.54h51.08ZM394.94,666.59h51.08v51.54h-51.08v-51.54ZM448.23,666.59h51.08v51.54h-51.08v-51.54ZM501.54,666.59h51.07v51.54h-51.07v-51.54ZM554.83,666.59h51.07v51.54h-51.07v-51.54ZM608.12,666.59h51.08v51.54h-51.08v-51.54ZM661.42,666.59h51.08v51.54h-51.08v-51.54ZM714.72,666.59h51.07v51.54h-51.07v-51.54ZM768.02,666.59h51.07v51.54h-51.07v-51.54ZM821.32,666.59h51.07v51.54h-51.07v-51.54ZM874.62,666.59h51.07v51.54h-51.07v-51.54ZM927.91,666.59h51.07v51.54h-51.07v-51.54ZM981.21,666.59h63.35v51.54h-63.35v-51.54ZM1046.78,666.59h51.08v51.54h-51.08v-51.54ZM1100.08,666.59h51.08v51.54h-51.08v-51.54ZM1153.38,666.59h51.07v51.54h-51.07v-51.54ZM1206.67,666.59h51.08v51.54h-51.08v-51.54ZM1259.97,666.59h51.08v51.54h-51.08v-51.54ZM1313.27,666.59h51.08v51.54h-51.08v-51.54ZM1366.57,666.59h65.5v51.54h-65.5v-51.54ZM1434.3,666.59h51.08v51.54h-51.08v-51.54ZM1487.59,666.59h51.08v51.54h-51.08v-51.54ZM1540.89,666.59h51.07v51.54h-51.07v-51.54ZM1594.19,666.59h51.08v51.54h-51.08v-51.54ZM1647.49,666.59h51.08v51.54h-51.08v-51.54ZM1700.79,666.59h51.08v51.54h-51.08v-51.54ZM1754.08,666.59h51.08v51.54h-51.08v-51.54ZM1807.38,666.59h51.08v51.54h-51.08v-51.54ZM1860.68,666.59h51.07v51.54h-51.07v-51.54ZM1913.98,666.59h51.07v51.54h-51.07v-51.54ZM1967.27,666.59h51.08v51.54h-51.08v-51.54ZM2020.57,666.59h51.08v51.54h-51.08v-51.54ZM2037.23,664.35h-16.67v-51.53h51.08v51.53h-34.42ZM2037.23,610.58h-16.67v-51.53h51.08v51.53h-34.42ZM2037.23,556.8h-16.67v-51.54h51.08v51.54h-34.42ZM2037.23,503.03h-16.67v-51.54h51.08v51.54h-34.42ZM2037.23,449.25h-16.67v-51.53h51.08v51.53h-34.42ZM2037.23,395.48h-16.67v-51.54h51.08v51.54h-34.42ZM2037.23,341.7h-16.67v-51.54h51.08v51.54h-34.42ZM2018.35,341.7h-51.08v-51.54h51.08v51.54ZM1965.05,341.7h-51.07v-51.54h51.07v51.54ZM1911.76,341.7h-51.07v-51.54h51.07v51.54ZM1858.46,341.7h-51.08v-51.54h51.08v51.54ZM1805.16,341.7h-51.08v-51.54h51.08v51.54ZM1751.86,341.7h-51.08v-51.54h51.08v51.54ZM1698.57,341.7h-51.08v-51.54h51.08v51.54ZM1645.26,341.7h-51.08v-51.54h51.08v51.54ZM1591.97,341.7h-51.07v-51.54h51.07v51.54ZM1538.67,341.7h-51.08v-51.54h51.08v51.54ZM1485.37,341.7h-51.08v-51.54h51.08v51.54ZM1432.07,341.7h-65.5v-51.54h65.5v51.54ZM1364.35,341.7h-51.08v-51.54h51.08v51.54ZM1311.05,341.7h-51.08v-51.54h51.08v51.54ZM1257.75,341.7h-51.08v-51.54h51.08v51.54ZM1204.45,341.7h-51.07v-51.54h51.07v51.54ZM1151.16,341.7h-51.08v-51.54h51.08v51.54ZM1097.86,341.7h-51.08v-51.54h51.08v51.54ZM1044.56,341.7h-63.35v-51.54h63.35v51.54ZM978.99,341.7h-51.07v-51.54h51.07v51.54ZM925.69,341.7h-51.07v-51.54h51.07v51.54ZM872.39,341.7h-51.07v-51.54h51.07v51.54ZM819.09,341.7h-51.07v-51.54h51.07v51.54ZM765.8,341.7h-51.07v-51.54h51.07v51.54ZM712.5,341.7h-51.08v-51.54h51.08v51.54ZM659.2,341.7h-51.08v-51.54h51.08v51.54ZM605.91,341.7h-51.07v-51.54h51.07v51.54ZM552.61,341.7h-51.07v-51.54h51.07v51.54ZM499.31,341.7h-51.08v-51.54h51.08v51.54ZM446.01,341.7h-51.08v-51.54h51.08v51.54ZM392.72,341.7h-51.08v-51.54h51.08v51.54ZM339.42,341.7h-51.08v-51.54h51.08v51.54ZM339.42,343.94v51.54h-51.08v-51.54h51.08ZM339.42,397.72v51.53h-51.08v-51.53h51.08ZM339.42,451.49v51.54h-51.08v-51.54h51.08ZM339.42,505.27v51.54h-51.08v-51.54h51.08ZM339.42,559.05v51.53h-51.08v-51.53h51.08ZM339.42,612.82v51.53h-51.08v-51.53h51.08ZM339.42,666.59v51.54h-51.08v-51.54h51.08ZM339.42,720.37v51.54h-51.08v-51.54h51.08ZM341.64,720.37h51.08v51.54h-51.08v-51.54ZM394.94,720.37h51.08v51.54h-51.08v-51.54ZM448.23,720.37h51.08v51.54h-51.08v-51.54ZM501.54,720.37h51.07v51.54h-51.07v-51.54ZM554.83,720.37h51.07v51.54h-51.07v-51.54ZM608.12,720.37h51.08v51.54h-51.08v-51.54ZM661.42,720.37h51.08v51.54h-51.08v-51.54ZM714.72,720.37h51.07v51.54h-51.07v-51.54ZM768.02,720.37h51.07v51.54h-51.07v-51.54ZM821.32,720.37h51.07v51.54h-51.07v-51.54ZM874.62,720.37h51.07v51.54h-51.07v-51.54ZM927.91,720.37h51.07v51.54h-51.07v-51.54ZM981.21,720.37h63.35v51.54h-63.35v-51.54ZM1046.78,720.37h51.08v51.54h-51.08v-51.54ZM1100.08,720.37h51.08v51.54h-51.08v-51.54ZM1153.38,720.37h51.07v51.54h-51.07v-51.54ZM1206.67,720.37h51.08v51.54h-51.08v-51.54ZM1259.97,720.37h51.08v51.54h-51.08v-51.54ZM1313.27,720.37h51.08v51.54h-51.08v-51.54ZM1366.57,720.37h65.5v51.54h-65.5v-51.54ZM1434.3,720.37h51.08v51.54h-51.08v-51.54ZM1487.59,720.37h51.08v51.54h-51.08v-51.54ZM1540.89,720.37h51.07v51.54h-51.07v-51.54ZM1594.19,720.37h51.08v51.54h-51.08v-51.54ZM1647.49,720.37h51.08v51.54h-51.08v-51.54ZM1700.79,720.37h51.08v51.54h-51.08v-51.54ZM1754.08,720.37h51.08v51.54h-51.08v-51.54ZM1807.38,720.37h51.08v51.54h-51.08v-51.54ZM1860.68,720.37h51.07v51.54h-51.07v-51.54ZM1913.98,720.37h51.07v51.54h-51.07v-51.54ZM1967.27,720.37h51.08v51.54h-51.08v-51.54ZM2020.57,720.37h51.08v51.54h-51.08v-51.54ZM2073.87,720.37h51.07v51.54h-51.07v-51.54ZM2073.87,718.13v-51.54h51.07v51.54h-51.07ZM2073.87,664.35v-51.53h51.07v51.53h-51.07ZM2073.87,610.58v-51.53h51.07v51.53h-51.07ZM2073.87,556.8v-51.54h51.07v51.54h-51.07ZM2073.87,503.03v-51.54h51.07v51.54h-51.07ZM2073.87,449.25v-51.53h51.07v51.53h-51.07ZM2073.87,395.48v-51.54h51.07v51.54h-51.07ZM2073.87,341.7v-51.54h51.07v51.54h-51.07ZM2073.87,287.93v-51.54h51.07v51.54h-51.07ZM2071.65,287.93h-51.08v-51.54h51.08v51.54ZM2018.35,287.93h-51.08v-51.54h51.08v51.54ZM1965.05,287.93h-51.07v-51.54h51.07v51.54ZM1911.76,287.93h-51.07v-51.54h51.07v51.54ZM1858.46,287.93h-51.08v-51.54h51.08v51.54ZM1805.16,287.93h-51.08v-51.54h51.08v51.54ZM1751.86,287.93h-51.08v-51.54h51.08v51.54ZM1698.57,287.93h-51.08v-51.54h51.08v51.54ZM1645.26,287.93h-51.08v-51.54h51.08v51.54ZM1591.97,287.93h-51.07v-51.54h51.07v51.54ZM1538.67,287.93h-51.08v-51.54h51.08v51.54ZM1485.37,287.93h-51.08v-51.54h51.08v51.54ZM1432.07,287.93h-65.5v-51.54h65.5v51.54ZM1364.35,287.93h-51.08v-51.54h51.08v51.54ZM1311.05,287.93h-51.08v-51.54h51.08v51.54ZM1257.75,287.93h-51.08v-51.54h51.08v51.54ZM1204.45,287.93h-51.07v-51.54h51.07v51.54ZM1151.16,287.93h-51.08v-51.54h51.08v51.54ZM1097.86,287.93h-51.08v-51.54h51.08v51.54ZM1044.56,287.93h-63.35v-51.54h63.35v51.54ZM978.99,287.93h-51.07v-51.54h51.07v51.54ZM925.69,287.93h-51.07v-51.54h51.07v51.54ZM872.39,287.93h-51.07v-51.54h51.07v51.54ZM819.09,287.93h-51.07v-51.54h51.07v51.54ZM765.8,287.93h-51.07v-51.54h51.07v51.54ZM712.5,287.93h-51.08v-51.54h51.08v51.54ZM659.2,287.93h-51.08v-51.54h51.08v51.54ZM605.91,287.93h-51.07v-51.54h51.07v51.54ZM552.61,287.93h-51.07v-51.54h51.07v51.54ZM499.31,287.93h-51.08v-51.54h51.08v51.54ZM446.01,287.93h-51.08v-51.54h51.08v51.54ZM392.72,287.93h-51.08v-51.54h51.08v51.54ZM339.42,287.93h-51.08v-51.54h51.08v51.54ZM286.12,287.93h-51.08v-51.54h51.08v51.54ZM286.12,290.17v51.54h-51.08v-51.54h51.08ZM286.12,343.94v51.54h-51.08v-51.54h51.08ZM286.12,397.72v51.53h-51.08v-51.53h51.08ZM286.12,451.49v51.54h-51.08v-51.54h51.08ZM286.12,505.27v51.54h-51.08v-51.54h51.08ZM286.12,559.05v51.53h-51.08v-51.53h51.08ZM286.12,612.82v51.53h-51.08v-51.53h51.08ZM286.12,666.59v51.54h-51.08v-51.54h51.08ZM286.12,720.37v51.54h-51.08v-51.54h51.08ZM286.12,774.15v51.53h-51.08v-51.53h51.08ZM288.34,774.15h51.08v51.53h-51.08v-51.53ZM341.64,774.15h51.08v51.53h-51.08v-51.53ZM394.94,774.15h51.08v51.53h-51.08v-51.53ZM448.23,774.15h51.08v51.53h-51.08v-51.53ZM501.54,774.15h51.07v51.53h-51.07v-51.53ZM554.83,774.15h51.07v51.53h-51.07v-51.53ZM608.12,774.15h51.08v51.53h-51.08v-51.53ZM661.42,774.15h51.08v51.53h-51.08v-51.53ZM714.72,774.15h51.07v51.53h-51.07v-51.53ZM768.02,774.15h51.07v51.53h-51.07v-51.53ZM821.32,774.15h51.07v51.53h-51.07v-51.53ZM874.62,774.15h51.07v51.53h-51.07v-51.53ZM927.91,774.15h51.07v51.53h-51.07v-51.53ZM981.21,774.15h63.35v51.53h-63.35v-51.53ZM1046.78,774.15h51.08v51.53h-51.08v-51.53ZM1100.08,774.15h51.08v51.53h-51.08v-51.53ZM1153.38,774.15h51.07v51.53h-51.07v-51.53ZM1206.67,774.15h51.08v51.53h-51.08v-51.53ZM1259.97,774.15h51.08v51.53h-51.08v-51.53ZM1313.27,774.15h51.08v51.53h-51.08v-51.53ZM1366.57,774.15h65.5v51.53h-65.5v-51.53ZM1434.3,774.15h51.08v51.53h-51.08v-51.53ZM1487.59,774.15h51.08v51.53h-51.08v-51.53ZM1540.89,774.15h51.07v51.53h-51.07v-51.53ZM1594.19,774.15h51.08v51.53h-51.08v-51.53ZM1647.49,774.15h51.08v51.53h-51.08v-51.53ZM1700.79,774.15h51.08v51.53h-51.08v-51.53ZM1754.08,774.15h51.08v51.53h-51.08v-51.53ZM1807.38,774.15h51.08v51.53h-51.08v-51.53ZM1860.68,774.15h51.07v51.53h-51.07v-51.53ZM1913.98,774.15h51.07v51.53h-51.07v-51.53ZM1967.27,774.15h51.08v51.53h-51.08v-51.53ZM2020.57,774.15h51.08v51.53h-51.08v-51.53ZM2073.87,774.15h51.07v51.53h-51.07v-51.53ZM2127.17,774.15h51.07v51.53h-51.07v-51.53ZM2127.17,771.91v-51.54h51.07v51.54h-51.07ZM2127.17,718.13v-51.54h51.07v51.54h-51.07ZM2127.17,664.35v-51.53h51.07v51.53h-51.07ZM2127.17,610.58v-51.53h51.07v51.53h-51.07ZM2127.17,556.8v-51.54h51.07v51.54h-51.07ZM2127.17,503.03v-51.54h51.07v51.54h-51.07ZM2127.17,449.25v-51.53h51.07v51.53h-51.07ZM2127.17,395.48v-51.54h51.07v51.54h-51.07ZM2127.17,341.7v-51.54h51.07v51.54h-51.07ZM2127.17,287.93v-51.54h51.07v51.54h-51.07ZM2127.17,234.15v-51.54h51.07v51.54h-51.07ZM2124.94,234.15h-51.07v-51.54h51.07v51.54ZM2071.65,234.15h-51.08v-51.54h51.08v51.54ZM2018.35,234.15h-51.08v-51.54h51.08v51.54ZM1965.05,234.15h-51.07v-51.54h51.07v51.54ZM1911.76,234.15h-51.07v-51.54h51.07v51.54ZM1858.46,234.15h-51.08v-51.54h51.08v51.54ZM1805.16,234.15h-51.08v-51.54h51.08v51.54ZM1751.86,234.15h-51.08v-51.54h51.08v51.54ZM1698.57,234.15h-51.08v-51.54h51.08v51.54ZM1645.26,234.15h-51.08v-51.54h51.08v51.54ZM1591.97,234.15h-51.07v-51.54h51.07v51.54ZM1538.67,234.15h-51.08v-51.54h51.08v51.54ZM1485.37,234.15h-51.08v-51.54h51.08v51.54ZM1432.07,234.15h-65.5v-51.54h65.5v51.54ZM1364.35,234.15h-51.08v-51.54h51.08v51.54ZM1311.05,234.15h-51.08v-51.54h51.08v51.54ZM1257.75,234.15h-51.08v-51.54h51.08v51.54ZM1204.45,234.15h-51.07v-51.54h51.07v51.54ZM1151.16,234.15h-51.08v-51.54h51.08v51.54ZM1097.86,234.15h-51.08v-51.54h51.08v51.54ZM1044.56,234.15h-63.35v-51.54h63.35v51.54ZM978.99,234.15h-51.07v-51.54h51.07v51.54ZM925.69,234.15h-51.07v-51.54h51.07v51.54ZM872.39,234.15h-51.07v-51.54h51.07v51.54ZM819.09,234.15h-51.07v-51.54h51.07v51.54ZM765.8,234.15h-51.07v-51.54h51.07v51.54ZM712.5,234.15h-51.08v-51.54h51.08v51.54ZM659.2,234.15h-51.08v-51.54h51.08v51.54ZM605.91,234.15h-51.07v-51.54h51.07v51.54ZM552.61,234.15h-51.07v-51.54h51.07v51.54ZM499.31,234.15h-51.08v-51.54h51.08v51.54ZM446.01,234.15h-51.08v-51.54h51.08v51.54ZM392.72,234.15h-51.08v-51.54h51.08v51.54ZM339.42,234.15h-51.08v-51.54h51.08v51.54ZM286.12,234.15h-51.08v-51.54h51.08v51.54ZM232.82,234.15h-51.07v-51.54h51.07v51.54ZM232.82,236.39v51.54h-51.07v-51.54h51.07ZM232.82,290.17v51.54h-51.07v-51.54h51.07ZM232.82,343.94v51.54h-51.07v-51.54h51.07ZM232.82,397.72v51.53h-51.07v-51.53h51.07ZM232.82,451.49v51.54h-51.07v-51.54h51.07ZM232.82,505.27v51.54h-51.07v-51.54h51.07ZM232.82,559.05v51.53h-51.07v-51.53h51.07ZM232.82,612.82v51.53h-51.07v-51.53h51.07ZM232.82,666.59v51.54h-51.07v-51.54h51.07ZM232.82,720.37v51.54h-51.07v-51.54h51.07ZM232.82,774.15v51.53h-51.07v-51.53h51.07ZM232.82,827.92v51.54h-51.07v-51.54h51.07ZM235.04,827.92h51.08v51.54h-51.08v-51.54ZM288.34,827.92h51.08v51.54h-51.08v-51.54ZM341.64,827.92h51.08v51.54h-51.08v-51.54ZM394.94,827.92h51.08v51.54h-51.08v-51.54ZM448.23,827.92h51.08v51.54h-51.08v-51.54ZM501.54,827.92h51.07v51.54h-51.07v-51.54ZM554.83,827.92h51.07v51.54h-51.07v-51.54ZM608.12,827.92h51.08v51.54h-51.08v-51.54ZM661.42,827.92h51.08v51.54h-51.08v-51.54ZM714.72,827.92h51.07v51.54h-51.07v-51.54ZM768.02,827.92h51.07v51.54h-51.07v-51.54ZM821.32,827.92h51.07v51.54h-51.07v-51.54ZM874.62,827.92h51.07v51.54h-51.07v-51.54ZM927.91,827.92h51.07v51.54h-51.07v-51.54ZM981.21,827.92h63.35v51.54h-63.35v-51.54ZM1046.78,827.92h51.08v51.54h-51.08v-51.54ZM1100.08,827.92h51.08v51.54h-51.08v-51.54ZM1153.38,827.92h51.07v51.54h-51.07v-51.54ZM1206.67,827.92h51.08v51.54h-51.08v-51.54ZM1259.97,827.92h51.08v51.54h-51.08v-51.54ZM1313.27,827.92h51.08v51.54h-51.08v-51.54ZM1366.57,827.92h65.5v51.54h-65.5v-51.54ZM1434.3,827.92h51.08v51.54h-51.08v-51.54ZM1487.59,827.92h51.08v51.54h-51.08v-51.54ZM1540.89,827.92h51.07v51.54h-51.07v-51.54ZM1594.19,827.92h51.08v51.54h-51.08v-51.54ZM1647.49,827.92h51.08v51.54h-51.08v-51.54ZM1700.79,827.92h51.08v51.54h-51.08v-51.54ZM1754.08,827.92h51.08v51.54h-51.08v-51.54ZM1807.38,827.92h51.08v51.54h-51.08v-51.54ZM1860.68,827.92h51.07v51.54h-51.07v-51.54ZM1913.98,827.92h51.07v51.54h-51.07v-51.54ZM1967.27,827.92h51.08v51.54h-51.08v-51.54ZM2020.57,827.92h51.08v51.54h-51.08v-51.54ZM2073.87,827.92h51.07v51.54h-51.07v-51.54ZM2127.17,827.92h51.07v51.54h-51.07v-51.54ZM2180.46,827.92h51.07v51.54h-51.07v-51.54ZM2180.46,825.68v-51.53h51.07v51.53h-51.07ZM2180.46,771.91v-51.54h51.07v51.54h-51.07ZM2180.46,718.13v-51.54h51.07v51.54h-51.07ZM2180.46,664.35v-51.53h51.07v51.53h-51.07ZM2180.46,610.58v-51.53h51.07v51.53h-51.07ZM2180.46,556.8v-51.54h51.07v51.54h-51.07ZM2180.46,503.03v-51.54h51.07v51.54h-51.07ZM2180.46,449.25v-51.53h51.07v51.53h-51.07ZM2180.46,395.48v-51.54h51.07v51.54h-51.07ZM2180.46,341.7v-51.54h51.07v51.54h-51.07ZM2180.46,287.93v-51.54h51.07v51.54h-51.07ZM2180.46,234.15v-51.54h51.07v51.54h-51.07ZM2180.46,180.37v-51.54h51.07v51.54h-51.07ZM2178.24,180.37h-51.07v-51.54h51.07v51.54ZM2124.94,180.37h-51.07v-51.54h51.07v51.54ZM2071.65,180.37h-51.08v-51.54h51.08v51.54ZM2018.35,180.37h-51.08v-51.54h51.08v51.54ZM1965.05,180.37h-51.07v-51.54h51.07v51.54ZM1911.76,180.37h-51.07v-51.54h51.07v51.54ZM1858.46,180.37h-51.08v-51.54h51.08v51.54ZM1805.16,180.37h-51.08v-51.54h51.08v51.54ZM1751.86,180.37h-51.08v-51.54h51.08v51.54ZM1698.57,180.37h-51.08v-51.54h51.08v51.54ZM1645.26,180.37h-51.08v-51.54h51.08v51.54ZM1591.97,180.37h-51.07v-51.54h51.07v51.54ZM1538.67,180.37h-51.08v-51.54h51.08v51.54ZM1485.37,180.37h-51.08v-51.54h51.08v51.54ZM1432.07,180.37h-65.5v-51.54h65.5v51.54ZM1364.35,180.37h-51.08v-51.54h51.08v51.54ZM1311.05,180.37h-51.08v-51.54h51.08v51.54ZM1257.75,180.37h-51.08v-51.54h51.08v51.54ZM1204.45,180.37h-51.07v-51.54h51.07v51.54ZM1151.16,180.37h-51.08v-51.54h51.08v51.54ZM1097.86,180.37h-51.08v-51.54h51.08v51.54ZM1044.56,180.37h-63.35v-51.54h63.35v51.54ZM978.99,180.37h-51.07v-51.54h51.07v51.54ZM925.69,180.37h-51.07v-51.54h51.07v51.54ZM872.39,180.37h-51.07v-51.54h51.07v51.54ZM819.09,180.37h-51.07v-51.54h51.07v51.54ZM765.8,180.37h-51.07v-51.54h51.07v51.54ZM712.5,180.37h-51.08v-51.54h51.08v51.54ZM659.2,180.37h-51.08v-51.54h51.08v51.54ZM605.91,180.37h-51.07v-51.54h51.07v51.54ZM552.61,180.37h-51.07v-51.54h51.07v51.54ZM499.31,180.37h-51.08v-51.54h51.08v51.54ZM446.01,180.37h-51.08v-51.54h51.08v51.54ZM392.72,180.37h-51.08v-51.54h51.08v51.54ZM339.42,180.37h-51.08v-51.54h51.08v51.54ZM286.12,180.37h-51.08v-51.54h51.08v51.54ZM232.82,180.37h-51.07v-51.54h51.07v51.54ZM179.52,180.37h-51.08v-51.54h51.08v51.54ZM179.52,182.61v51.54h-51.08v-51.54h51.08ZM179.52,236.39v51.54h-51.08v-51.54h51.08ZM179.52,290.17v51.54h-51.08v-51.54h51.08ZM179.52,343.94v51.54h-51.08v-51.54h51.08ZM179.52,397.72v51.53h-51.08v-51.53h51.08ZM179.52,451.49v51.54h-51.08v-51.54h51.08ZM179.52,505.27v51.54h-51.08v-51.54h51.08ZM179.52,559.05v51.53h-51.08v-51.53h51.08ZM179.52,612.82v51.53h-51.08v-51.53h51.08ZM179.52,666.59v51.54h-51.08v-51.54h51.08ZM179.52,720.37v51.54h-51.08v-51.54h51.08ZM179.52,774.15v51.53h-51.08v-51.53h51.08ZM179.52,827.92v51.54h-51.08v-51.54h51.08ZM179.52,881.7v51.53h-51.08v-51.53h51.08ZM181.75,881.7h51.07v51.53h-51.07v-51.53ZM235.04,881.7h51.08v51.53h-51.08v-51.53ZM288.34,881.7h51.08v51.53h-51.08v-51.53ZM341.64,881.7h51.08v51.53h-51.08v-51.53ZM394.94,881.7h51.08v51.53h-51.08v-51.53ZM448.23,881.7h51.08v51.53h-51.08v-51.53ZM501.54,881.7h51.07v51.53h-51.07v-51.53ZM554.83,881.7h51.07v51.53h-51.07v-51.53ZM608.12,881.7h51.08v51.53h-51.08v-51.53ZM661.42,881.7h51.08v51.53h-51.08v-51.53ZM714.72,881.7h51.07v51.53h-51.07v-51.53ZM768.02,881.7h51.07v51.53h-51.07v-51.53ZM821.32,881.7h51.07v51.53h-51.07v-51.53ZM874.62,881.7h51.07v51.53h-51.07v-51.53ZM927.91,881.7h51.07v51.53h-51.07v-51.53ZM981.21,881.7h63.35v51.53h-63.35v-51.53ZM1046.78,881.7h51.08v51.53h-51.08v-51.53ZM1100.08,881.7h51.08v51.53h-51.08v-51.53ZM1153.38,881.7h51.07v51.53h-51.07v-51.53ZM1206.67,881.7h51.08v51.53h-51.08v-51.53ZM1259.97,881.7h51.08v51.53h-51.08v-51.53ZM1313.27,881.7h51.08v51.53h-51.08v-51.53ZM1366.57,881.7h65.5v51.53h-65.5v-51.53ZM1434.3,881.7h51.08v51.53h-51.08v-51.53ZM1487.59,881.7h51.08v51.53h-51.08v-51.53ZM1540.89,881.7h51.07v51.53h-51.07v-51.53ZM1594.19,881.7h51.08v51.53h-51.08v-51.53ZM1647.49,881.7h51.08v51.53h-51.08v-51.53ZM1700.79,881.7h51.08v51.53h-51.08v-51.53ZM1754.08,881.7h51.08v51.53h-51.08v-51.53ZM1807.38,881.7h51.08v51.53h-51.08v-51.53ZM1860.68,881.7h51.07v51.53h-51.07v-51.53ZM1913.98,881.7h51.07v51.53h-51.07v-51.53ZM1967.27,881.7h51.08v51.53h-51.08v-51.53ZM2020.57,881.7h51.08v51.53h-51.08v-51.53ZM2073.87,881.7h51.07v51.53h-51.07v-51.53ZM2127.17,881.7h51.07v51.53h-51.07v-51.53ZM2180.46,881.7h51.07v51.53h-51.07v-51.53ZM2233.77,881.7h51.07v51.53h-51.07v-51.53ZM2233.77,879.46v-51.54h51.07v51.54h-51.07ZM2233.77,825.68v-51.53h51.07v51.53h-51.07ZM2233.77,771.91v-51.54h51.07v51.54h-51.07ZM2233.77,718.13v-51.54h51.07v51.54h-51.07ZM2233.77,664.35v-51.53h51.07v51.53h-51.07ZM2233.77,610.58v-51.53h51.07v51.53h-51.07ZM2233.77,556.8v-51.54h51.07v51.54h-51.07ZM2233.77,503.03v-51.54h51.07v51.54h-51.07ZM2233.77,449.25v-51.53h51.07v51.53h-51.07ZM2233.77,395.48v-51.54h51.07v51.54h-51.07ZM2233.77,341.7v-51.54h51.07v51.54h-51.07ZM2233.77,287.93v-51.54h51.07v51.54h-51.07ZM2233.77,234.15v-51.54h51.07v51.54h-51.07ZM2233.77,180.37v-51.54h51.07v51.54h-51.07ZM2231.54,75.06v51.54h-51.07v-51.54h51.07ZM2178.24,75.06v51.54h-51.07v-51.54h51.07ZM2124.94,75.06v51.54h-51.07v-51.54h51.07ZM2037.23,75.06h34.42v51.54h-51.08v-51.54h16.67ZM2018.35,75.06v51.54h-51.08v-51.54h51.08ZM1965.05,75.06v51.54h-51.07v-51.54h51.07ZM1911.76,75.06v51.54h-51.07v-51.54h51.07ZM1858.46,75.06v51.54h-51.08v-51.54h51.08ZM1805.16,75.06v51.54h-51.08v-51.54h51.08ZM1751.86,75.06v51.54h-51.08v-51.54h51.08ZM1698.57,75.06v51.54h-51.08v-51.54h51.08ZM1645.26,75.06v51.54h-51.08v-51.54h51.08ZM1591.97,75.06v51.54h-51.07v-51.54h51.07ZM1538.67,75.06v51.54h-51.08v-51.54h51.08ZM1485.37,75.06v51.54h-51.08v-51.54h51.08ZM1432.07,75.06v51.54h-65.5v-51.54h65.5ZM1354.35,75.06h10v51.54h-51.08v-51.54h41.07ZM1311.05,75.06v51.54h-51.08v-51.54h51.08ZM1257.75,75.06v51.54h-51.08v-51.54h51.08ZM1204.45,75.06v51.54h-51.07v-51.54h51.07ZM1151.16,75.06v51.54h-51.08v-51.54h51.08ZM1065.6,75.06h32.26v51.54h-51.08v-51.54h18.82ZM1044.56,75.06v51.54h-63.35v-51.54h63.35ZM966.83,75.06h12.16v51.54h-51.07v-51.54h38.92ZM925.69,75.06v51.54h-51.07v-51.54h51.07ZM872.39,75.06v51.54h-51.07v-51.54h51.07ZM819.09,75.06v51.54h-51.07v-51.54h51.07ZM765.8,75.06v51.54h-51.07v-51.54h51.07ZM712.5,75.06v51.54h-51.08v-51.54h51.08ZM659.2,75.06v51.54h-51.08v-51.54h51.08ZM605.91,75.06v51.54h-51.07v-51.54h51.07ZM552.61,75.06v51.54h-51.07v-51.54h51.07ZM499.31,75.06v51.54h-51.08v-51.54h51.08ZM446.01,75.06v51.54h-51.08v-51.54h51.08ZM392.72,75.06v51.54h-51.08v-51.54h51.08ZM339.42,75.06v51.54h-51.08v-51.54h51.08ZM286.12,75.06v51.54h-51.08v-51.54h51.08ZM232.82,75.06v51.54h-51.07v-51.54h51.07ZM179.52,75.06v51.54h-51.08v-51.54h51.08ZM75.15,75.06h51.08v51.54h-51.08v-51.54ZM75.15,128.84h51.08v51.54h-51.08v-51.54ZM75.15,182.61h51.08v51.54h-51.08v-51.54ZM75.15,236.39h51.08v51.54h-51.08v-51.54ZM75.15,290.17h51.08v51.54h-51.08v-51.54ZM75.15,343.94h51.08v51.54h-51.08v-51.54ZM75.15,397.72h51.08v51.53h-51.08v-51.53ZM75.15,451.49h51.08v51.54h-51.08v-51.54ZM75.15,505.27h51.08v51.54h-51.08v-51.54ZM75.15,559.05h51.08v51.53h-51.08v-51.53ZM75.15,612.82h51.08v51.53h-51.08v-51.53ZM75.15,666.59h51.08v51.54h-51.08v-51.54ZM75.15,720.37h51.08v51.54h-51.08v-51.54ZM75.15,774.15h51.08v51.53h-51.08v-51.53ZM75.15,827.92h51.08v51.54h-51.08v-51.54ZM75.15,881.7h51.08v51.53h-51.08v-51.53ZM75.15,987.01v-51.54h51.08v51.54h-51.08ZM128.45,987.01v-51.54h51.08v51.54h-51.08ZM181.75,987.01v-51.54h51.07v51.54h-51.07ZM235.04,987.01v-51.54h51.08v51.54h-51.08ZM288.34,987.01v-51.54h51.08v51.54h-51.08ZM341.64,987.01v-51.54h51.08v51.54h-51.08ZM394.94,987.01v-51.54h51.08v51.54h-51.08ZM448.23,987.01v-51.54h51.08v51.54h-51.08ZM501.54,987.01v-51.54h51.07v51.54h-51.07ZM554.83,987.01v-51.54h51.07v51.54h-51.07ZM608.12,987.01v-51.54h51.08v51.54h-51.08ZM661.42,987.01v-51.54h51.08v51.54h-51.08ZM714.72,987.01v-51.54h51.07v51.54h-51.07ZM768.02,987.01v-51.54h51.07v51.54h-51.07ZM821.32,987.01v-51.54h51.07v51.54h-51.07ZM874.62,987.01v-51.54h51.07v51.54h-51.07ZM966.83,987.01h-38.92v-51.54h51.07v51.54h-12.16ZM981.21,987.01v-51.54h63.35v51.54h-63.35ZM1065.6,987.01h-18.82v-51.54h51.08v51.54h-32.26ZM1100.08,987.01v-51.54h51.08v51.54h-51.08ZM1153.38,987.01v-51.54h51.07v51.54h-51.07ZM1206.67,987.01v-51.54h51.08v51.54h-51.08ZM1259.97,987.01v-51.54h51.08v51.54h-51.08ZM1354.35,987.01h-41.07v-51.54h51.08v51.54h-10ZM1366.57,987.01v-51.54h65.5v51.54h-65.5ZM1434.3,987.01v-51.54h51.08v51.54h-51.08ZM1487.59,987.01v-51.54h51.08v51.54h-51.08ZM1540.89,987.01v-51.54h51.07v51.54h-51.07ZM1594.19,987.01v-51.54h51.08v51.54h-51.08ZM1647.49,987.01v-51.54h51.08v51.54h-51.08ZM1700.79,987.01v-51.54h51.08v51.54h-51.08ZM1754.08,987.01v-51.54h51.08v51.54h-51.08ZM1807.38,987.01v-51.54h51.08v51.54h-51.08ZM1860.68,987.01v-51.54h51.07v51.54h-51.07ZM1913.98,987.01v-51.54h51.07v51.54h-51.07ZM1967.27,987.01v-51.54h51.08v51.54h-51.08ZM2037.23,987.01h-16.67v-51.54h51.08v51.54h-34.42ZM2073.87,987.01v-51.54h51.07v51.54h-51.07ZM2127.17,987.01v-51.54h51.07v51.54h-51.07ZM2180.46,987.01v-51.54h51.07v51.54h-51.07ZM2233.77,987.01v-51.54h51.07v51.54h-51.07ZM2338.13,987.01h-51.07v-51.54h51.07v51.54ZM2338.13,933.24h-51.07v-51.53h51.07v51.53ZM2338.13,879.46h-51.07v-51.54h51.07v51.54ZM2338.13,825.68h-51.07v-51.53h51.07v51.53ZM2338.13,771.91h-51.07v-51.54h51.07v51.54ZM2338.13,718.13h-51.07v-51.54h51.07v51.54ZM2338.13,664.35h-51.07v-51.53h51.07v51.53ZM2338.13,610.58h-51.07v-51.53h51.07v51.53ZM2338.13,556.8h-51.07v-51.54h51.07v51.54ZM2338.13,503.03h-51.07v-51.54h51.07v51.54ZM2338.13,449.25h-51.07v-51.53h51.07v51.53ZM2338.13,395.48h-51.07v-51.54h51.07v51.54ZM2338.13,341.7h-51.07v-51.54h51.07v51.54ZM2338.13,287.93h-51.07v-51.54h51.07v51.54ZM2338.13,234.15h-51.07v-51.54h51.07v51.54ZM2338.13,180.37h-51.07v-51.54h51.07v51.54ZM2338.13,126.6h-51.07v-51.54h51.07v51.54Z"/>
</svg>