<?xml version="1.0" encoding="UTF-8"?>
<svg xmlns="http://www.w3.org/2000/svg" xmlns:xlink="http://www.w3.org/1999/xlink" viewBox="0 0 2400 1080">
  <defs>
    <style>
      .cls-1, .cls-2 {
        fill: #fff;
      }

      .cls-3 {
        isolation: isolate;
      }

      .cls-4 {
        mix-blend-mode: color-dodge;
        opacity: .27;
      }

      .cls-5 {
        mix-blend-mode: screen;
      }

      .cls-5, .cls-2 {
        opacity: .6;
      }

      .cls-6 {
        fill: url(#radial-gradient-2);
      }

      .cls-6, .cls-7 {
        opacity: .15;
      }

      .cls-8 {
        fill: #30b2b5;
      }

      .cls-7 {
        fill: url(#radial-gradient);
      }
    </style>
    <radialGradient id="radial-gradient" cx="1106.78" cy="444.18" fx="1106.78" fy="444.18" r="78.15" gradientTransform="translate(-10503 -3807.13) scale(10)" gradientUnits="userSpaceOnUse">
      <stop offset=".14" stop-color="#fff"/>
      <stop offset=".52" stop-color="#d6d7d1"/>
      <stop offset=".57" stop-color="#cbcdc8"/>
      <stop offset=".65" stop-color="#adb4b0"/>
      <stop offset=".76" stop-color="#7e8c8a"/>
      <stop offset=".89" stop-color="#3c5556"/>
      <stop offset="1" stop-color="#002226"/>
    </radialGradient>
    <radialGradient id="radial-gradient-2" cx="1233.45" cy="444.28" fx="1233.45" fy="444.28" r="78.15" xlink:href="#radial-gradient"/>
  </defs>
  <g class="cls-3">
    <g id="Layer_1" data-name="Layer 1">
      <rect class="cls-8" x="-70" y="0" width="1269.58" height="1269.58"/>
      <rect class="cls-7" x="-70" y="0" width="1269.58" height="1269.58"/>
      <g class="cls-5">
        <g>
          <g class="cls-4">
            <polygon class="cls-1" points="-61.54 88.24 -61.54 85.6 1196.76 85.6 1196.76 88.24 -61.54 88.24 -61.54 88.24"/>
            <polygon class="cls-1" points="-61.54 151.45 -61.54 148.82 1196.76 148.82 1196.76 151.45 -61.54 151.45 -61.54 151.45"/>
            <polygon class="cls-1" points="-61.54 214.67 -61.54 212.04 1196.76 212.04 1196.76 214.67 -61.54 214.67 -61.54 214.67"/>
            <polygon class="cls-1" points="-61.54 277.89 -61.54 275.25 1196.76 275.25 1196.76 277.89 -61.54 277.89 -61.54 277.89"/>
            <polygon class="cls-1" points="-61.54 341.1 -61.54 338.47 1196.76 338.47 1196.76 341.1 -61.54 341.1 -61.54 341.1"/>
            <polygon class="cls-1" points="-61.54 404.32 -61.54 401.68 1196.76 401.68 1196.76 404.32 -61.54 404.32 -61.54 404.32"/>
            <polygon class="cls-1" points="-61.54 467.53 -61.54 464.9 1196.76 464.9 1196.76 467.53 -61.54 467.53 -61.54 467.53"/>
            <polygon class="cls-1" points="-61.54 530.74 -61.54 528.11 1196.76 528.11 1196.76 530.74 -61.54 530.74 -61.54 530.74"/>
            <polygon class="cls-1" points="-61.54 593.96 -61.54 591.33 1196.76 591.33 1196.76 593.96 -61.54 593.96 -61.54 593.96"/>
            <polygon class="cls-1" points="-61.54 657.18 -61.54 654.54 1196.76 654.54 1196.76 657.18 -61.54 657.18 -61.54 657.18"/>
            <polygon class="cls-1" points="-61.54 720.39 -61.54 717.76 1196.76 717.76 1196.76 720.39 -61.54 720.39 -61.54 720.39"/>
            <polygon class="cls-1" points="-61.54 783.6 -61.54 780.97 1196.76 780.97 1196.76 783.6 -61.54 783.6 -61.54 783.6"/>
            <polygon class="cls-1" points="-61.54 846.82 -61.54 844.19 1196.76 844.19 1196.76 846.82 -61.54 846.82 -61.54 846.82"/>
            <polygon class="cls-1" points="-61.54 910.04 -61.54 907.41 1196.76 907.41 1196.76 910.04 -61.54 910.04 -61.54 910.04"/>
            <polygon class="cls-1" points="-61.54 973.25 -61.54 970.62 1196.76 970.62 1196.76 973.25 -61.54 973.25 -61.54 973.25"/>
            <polygon class="cls-1" points="-61.54 1036.47 -61.54 1033.84 1196.76 1033.84 1196.76 1036.47 -61.54 1036.47 -61.54 1036.47"/>
          </g>
          <g class="cls-4">
            <polygon class="cls-1" points="32.45 1269.58 29.83 1269.58 29.83 0 32.45 0 32.45 1269.58 32.45 1269.58"/>
            <polygon class="cls-1" points="95.1 1269.58 92.49 1269.58 92.49 0 95.1 0 95.1 1269.58 95.1 1269.58"/>
            <polygon class="cls-1" points="157.76 1269.58 155.14 1269.58 155.14 0 157.76 0 157.76 1269.58 157.76 1269.58"/>
            <polygon class="cls-1" points="220.4 1269.58 217.8 1269.58 217.8 0 220.4 0 220.4 1269.58 220.4 1269.58"/>
            <polygon class="cls-1" points="283.06 1269.58 280.45 1269.58 280.45 0 283.06 0 283.06 1269.58 283.06 1269.58"/>
            <polygon class="cls-1" points="345.72 1269.58 343.11 1269.58 343.11 0 345.72 0 345.72 1269.58 345.72 1269.58"/>
            <polygon class="cls-1" points="408.37 1269.58 405.76 1269.58 405.76 0 408.37 0 408.37 1269.58 408.37 1269.58"/>
            <polygon class="cls-1" points="471.02 1269.58 468.41 1269.58 468.41 0 471.02 0 471.02 1269.58 471.02 1269.58"/>
            <polygon class="cls-1" points="533.68 1269.58 531.06 1269.58 531.06 0 533.68 0 533.68 1269.58 533.68 1269.58"/>
            <polygon class="cls-1" points="596.33 1269.58 593.72 1269.58 593.72 0 596.33 0 596.33 1269.58 596.33 1269.58"/>
            <polygon class="cls-1" points="658.98 1269.58 656.37 1269.58 656.37 0 658.98 0 658.98 1269.58 658.98 1269.58"/>
            <polygon class="cls-1" points="721.63 1269.58 719.02 1269.58 719.02 0 721.63 0 721.63 1269.58 721.63 1269.58"/>
            <polygon class="cls-1" points="784.29 1269.58 781.68 1269.58 781.68 0 784.29 0 784.29 1269.58 784.29 1269.58"/>
            <polygon class="cls-1" points="846.94 1269.58 844.33 1269.58 844.33 0 846.94 0 846.94 1269.58 846.94 1269.58"/>
            <polygon class="cls-1" points="909.59 1269.58 906.98 1269.58 906.98 0 909.59 0 909.59 1269.58 909.59 1269.58"/>
            <polygon class="cls-1" points="972.25 1269.58 969.63 1269.58 969.63 0 972.25 0 972.25 1269.58 972.25 1269.58"/>
            <polygon class="cls-1" points="1034.9 1269.58 1032.29 1269.58 1032.29 0 1034.9 0 1034.9 1269.58 1034.9 1269.58"/>
            <polygon class="cls-1" points="1097.55 1269.58 1094.94 1269.58 1094.94 0 1097.55 0 1097.55 1269.58 1097.55 1269.58"/>
          </g>
        </g>
        <polygon class="cls-2" points="-70 324.19 -51.5 324.19 -9.22 293.75 23.46 321.25 106.63 321.25 149.03 296.83 181.44 327.15 199.23 327.15 211.5 232.76 218.27 232.94 224.38 324.19 248.14 324.19 278.54 292.61 298.83 324.19 428.66 324.19 448.29 311.96 477.75 325.7 505.41 325.7 514.62 222.57 521.45 222.38 535.09 324.41 568.88 312.06 596.16 323.3 694.85 323.3 737.25 298.88 769.66 329.2 787.46 329.2 799.72 234.81 806.49 234.99 812.6 326.24 836.37 326.24 866.76 294.67 887.06 326.24 1016.88 326.24 1036.51 314.02 1065.97 327.75 1093.62 327.75 1102.85 224.62 1109.67 224.43 1123.31 326.46 1157.1 314.11 1199.58 338.52 1196.18 344.51 1156.45 321.67 1117.63 335.86 1106.93 255.79 1099.91 334.63 1064.45 334.63 1037 321.81 1018.78 333.18 883.33 333.18 865.69 305.73 839.23 333.18 806.18 333.18 802.02 270.19 793.47 336.12 766.99 336.12 736.26 307.4 696.66 330.22 594.48 330.22 568.23 319.61 529.41 333.81 518.71 253.73 511.69 332.58 476.23 332.58 448.78 319.76 430.56 331.13 295.11 331.13 277.47 303.67 251.01 331.13 217.95 331.13 213.8 268.14 205.24 334.07 178.77 334.07 148.04 305.35 108.44 328.17 20.96 328.17 -9.54 302.49 -49.33 331.13 -70 331.13 -70 324.19"/>
        <polygon class="cls-2" points="-70 616.78 -38.65 616.78 -25.01 606.54 -3.91 623.81 15.53 621.76 22.93 537.47 28.38 537.22 44.02 620.55 71.88 599.05 90.45 623.86 194.74 623.86 228.7 599.42 254.95 621.5 321.75 621.5 355.81 601.89 381.83 626.24 396.13 626.24 405.98 550.43 411.41 550.57 416.32 623.86 435.41 623.86 459.83 598.5 476.12 623.86 580.4 623.86 596.16 614.04 619.83 625.07 642.04 625.07 649.44 542.24 654.92 542.09 665.88 624.04 693.01 614.12 714.93 623.15 794.2 623.15 828.25 603.54 854.28 627.88 868.57 627.88 878.42 552.08 883.86 552.22 888.77 625.51 907.86 625.51 932.27 600.15 948.57 625.51 1052.84 625.51 1068.61 615.69 1092.27 626.72 1114.48 626.72 1121.89 543.89 1127.36 543.74 1138.32 625.69 1165.46 615.76 1199.58 635.38 1196.85 640.19 1164.94 621.84 1133.76 633.24 1125.17 568.93 1119.53 632.25 1091.04 632.25 1069 621.95 1054.36 631.08 945.58 631.08 931.41 609.04 910.16 631.08 883.61 631.08 880.26 580.5 873.4 633.45 852.14 633.45 827.46 610.38 795.65 628.71 713.58 628.71 692.5 620.19 661.31 631.59 652.72 567.27 647.09 630.6 618.6 630.6 596.56 620.31 581.92 629.44 473.13 629.44 458.96 607.39 437.71 629.44 411.16 629.44 407.82 578.85 400.95 631.8 379.69 631.8 355.01 608.73 323.2 627.06 252.94 627.06 228.45 606.44 196.49 629.44 87.7 629.44 70.79 606.84 40.29 630.42 26.68 557.85 20.62 626.82 -5.6 629.55 -25.16 613.57 -36.84 622.29 -70 622.29 -70 616.78"/>
      </g>
      <rect class="cls-8" x="1196.76" y="0" width="1269.58" height="1269.58"/>
      <rect class="cls-6" x="1196.76" y="1" width="1269.58" height="1269.58"/>
      <g class="cls-5">
        <g>
          <g class="cls-4">
            <polygon class="cls-1" points="1205.22 88.24 1205.22 85.6 2463.51 85.6 2463.51 88.24 1205.22 88.24 1205.22 88.24"/>
            <polygon class="cls-1" points="1205.22 151.45 1205.22 148.82 2463.51 148.82 2463.51 151.45 1205.22 151.45 1205.22 151.45"/>
            <polygon class="cls-1" points="1205.22 214.67 1205.22 212.04 2463.51 212.04 2463.51 214.67 1205.22 214.67 1205.22 214.67"/>
            <polygon class="cls-1" points="1205.22 277.89 1205.22 275.25 2463.51 275.25 2463.51 277.89 1205.22 277.89 1205.22 277.89"/>
            <polygon class="cls-1" points="1205.22 341.1 1205.22 338.47 2463.51 338.47 2463.51 341.1 1205.22 341.1 1205.22 341.1"/>
            <polygon class="cls-1" points="1205.22 404.32 1205.22 401.68 2463.51 401.68 2463.51 404.32 1205.22 404.32 1205.22 404.32"/>
            <polygon class="cls-1" points="1205.22 467.53 1205.22 464.9 2463.51 464.9 2463.51 467.53 1205.22 467.53 1205.22 467.53"/>
            <polygon class="cls-1" points="1205.22 530.74 1205.22 528.11 2463.51 528.11 2463.51 530.74 1205.22 530.74 1205.22 530.74"/>
            <polygon class="cls-1" points="1205.22 593.96 1205.22 591.33 2463.51 591.33 2463.51 593.96 1205.22 593.96 1205.22 593.96"/>
            <polygon class="cls-1" points="1205.22 657.18 1205.22 654.54 2463.51 654.54 2463.51 657.18 1205.22 657.18 1205.22 657.18"/>
            <polygon class="cls-1" points="1205.22 720.39 1205.22 717.76 2463.51 717.76 2463.51 720.39 1205.22 720.39 1205.22 720.39"/>
            <polygon class="cls-1" points="1205.22 783.6 1205.22 780.97 2463.51 780.97 2463.51 783.6 1205.22 783.6 1205.22 783.6"/>
            <polygon class="cls-1" points="1205.22 846.82 1205.22 844.19 2463.51 844.19 2463.51 846.82 1205.22 846.82 1205.22 846.82"/>
            <polygon class="cls-1" points="1205.22 910.04 1205.22 907.41 2463.51 907.41 2463.51 910.04 1205.22 910.04 1205.22 910.04"/>
            <polygon class="cls-1" points="1205.22 973.25 1205.22 970.62 2463.51 970.62 2463.51 973.25 1205.22 973.25 1205.22 973.25"/>
            <polygon class="cls-1" points="1205.22 1036.47 1205.22 1033.84 2463.51 1033.84 2463.51 1036.47 1205.22 1036.47 1205.22 1036.47"/>
          </g>
          <g class="cls-4">
            <polygon class="cls-1" points="1299.2 1269.58 1296.59 1269.58 1296.59 0 1299.2 0 1299.2 1269.58 1299.2 1269.58"/>
            <polygon class="cls-1" points="1361.86 1269.58 1359.25 1269.58 1359.25 0 1361.86 0 1361.86 1269.58 1361.86 1269.58"/>
            <polygon class="cls-1" points="1424.51 1269.58 1421.9 1269.58 1421.9 0 1424.51 0 1424.51 1269.58 1424.51 1269.58"/>
            <polygon class="cls-1" points="1487.16 1269.58 1484.55 1269.58 1484.55 0 1487.16 0 1487.16 1269.58 1487.16 1269.58"/>
            <polygon class="cls-1" points="1549.82 1269.58 1547.2 1269.58 1547.2 0 1549.82 0 1549.82 1269.58 1549.82 1269.58"/>
            <polygon class="cls-1" points="1612.47 1269.58 1609.86 1269.58 1609.86 0 1612.47 0 1612.47 1269.58 1612.47 1269.58"/>
            <polygon class="cls-1" points="1675.12 1269.58 1672.51 1269.58 1672.51 0 1675.12 0 1675.12 1269.58 1675.12 1269.58"/>
            <polygon class="cls-1" points="1737.78 1269.58 1735.17 1269.58 1735.17 0 1737.78 0 1737.78 1269.58 1737.78 1269.58"/>
            <polygon class="cls-1" points="1800.43 1269.58 1797.82 1269.58 1797.82 0 1800.43 0 1800.43 1269.58 1800.43 1269.58"/>
            <polygon class="cls-1" points="1863.09 1269.58 1860.47 1269.58 1860.47 0 1863.09 0 1863.09 1269.58 1863.09 1269.58"/>
            <polygon class="cls-1" points="1925.73 1269.58 1923.13 1269.58 1923.13 0 1925.73 0 1925.73 1269.58 1925.73 1269.58"/>
            <polygon class="cls-1" points="1988.38 1269.58 1985.78 1269.58 1985.78 0 1988.38 0 1988.38 1269.58 1988.38 1269.58"/>
            <polygon class="cls-1" points="2051.04 1269.58 2048.44 1269.58 2048.44 0 2051.04 0 2051.04 1269.58 2051.04 1269.58"/>
            <polygon class="cls-1" points="2113.7 1269.58 2111.08 1269.58 2111.08 0 2113.7 0 2113.7 1269.58 2113.7 1269.58"/>
            <polygon class="cls-1" points="2176.35 1269.58 2173.73 1269.58 2173.73 0 2176.35 0 2176.35 1269.58 2176.35 1269.58"/>
            <polygon class="cls-1" points="2239.01 1269.58 2236.39 1269.58 2236.39 0 2239.01 0 2239.01 1269.58 2239.01 1269.58"/>
            <polygon class="cls-1" points="2301.66 1269.58 2299.04 1269.58 2299.04 0 2301.66 0 2301.66 1269.58 2301.66 1269.58"/>
            <polygon class="cls-1" points="2364.31 1269.58 2361.7 1269.58 2361.7 0 2364.31 0 2364.31 1269.58 2364.31 1269.58"/>
          </g>
        </g>
        <polygon class="cls-2" points="1196.76 324.19 1215.26 324.19 1257.53 293.75 1290.21 321.25 1373.38 321.25 1415.79 296.83 1448.19 327.15 1465.99 327.15 1478.25 232.76 1485.02 232.94 1491.14 324.19 1514.9 324.19 1545.3 292.61 1565.59 324.19 1695.42 324.19 1715.04 311.96 1744.51 325.7 1772.16 325.7 1781.38 222.57 1788.2 222.38 1801.84 324.41 1835.63 312.06 1862.91 323.3 1961.61 323.3 2004.01 298.88 2036.41 329.2 2054.21 329.2 2066.47 234.81 2073.24 234.99 2079.36 326.24 2103.12 326.24 2133.52 294.67 2153.82 326.24 2283.64 326.24 2303.27 314.02 2332.73 327.75 2360.38 327.75 2369.6 224.62 2376.42 224.43 2390.06 326.46 2423.86 314.11 2466.33 338.52 2462.94 344.51 2423.21 321.67 2384.38 335.86 2373.68 255.79 2366.67 334.63 2331.21 334.63 2303.76 321.81 2285.53 333.18 2150.09 333.18 2132.45 305.73 2105.99 333.18 2072.94 333.18 2068.77 270.19 2060.22 336.12 2033.75 336.12 2003.02 307.4 1963.42 330.22 1861.24 330.22 1834.99 319.61 1796.16 333.81 1785.47 253.73 1778.45 332.58 1742.99 332.58 1715.54 319.76 1697.32 331.13 1561.87 331.13 1544.22 303.67 1517.77 331.13 1484.71 331.13 1480.55 268.14 1472 334.07 1445.53 334.07 1414.8 305.35 1375.19 328.17 1287.71 328.17 1257.22 302.49 1217.43 331.13 1196.76 331.13 1196.76 324.19"/>
        <polygon class="cls-2" points="1196.76 616.78 1228.11 616.78 1241.75 606.54 1262.84 623.81 1282.29 621.76 1289.69 537.47 1295.13 537.22 1310.78 620.55 1338.64 599.05 1357.21 623.86 1461.5 623.86 1495.46 599.42 1521.7 621.5 1588.5 621.5 1622.56 601.89 1648.59 626.24 1662.88 626.24 1672.73 550.43 1678.17 550.57 1683.08 623.86 1702.16 623.86 1726.58 598.5 1742.88 623.86 1847.15 623.86 1862.91 614.04 1886.58 625.07 1908.79 625.07 1916.19 542.24 1921.68 542.09 1932.63 624.04 1959.77 614.12 1981.68 623.15 2060.95 623.15 2095 603.54 2121.04 627.88 2135.33 627.88 2145.17 552.08 2150.61 552.22 2155.52 625.51 2174.61 625.51 2199.03 600.15 2215.33 625.51 2319.6 625.51 2335.36 615.69 2359.03 626.72 2381.23 626.72 2388.64 543.89 2394.12 543.74 2405.07 625.69 2432.22 615.76 2466.33 635.38 2463.6 640.19 2431.7 621.84 2400.51 633.24 2391.92 568.93 2386.28 632.25 2357.8 632.25 2335.76 621.95 2321.12 631.08 2212.34 631.08 2198.16 609.04 2176.91 631.08 2150.37 631.08 2147.02 580.5 2140.16 633.45 2118.89 633.45 2094.21 610.38 2062.4 628.71 1980.33 628.71 1959.25 620.19 1928.07 631.59 1919.48 567.27 1913.84 630.6 1885.36 630.6 1863.31 620.31 1848.68 629.44 1739.89 629.44 1725.72 607.39 1704.47 629.44 1677.92 629.44 1674.58 578.85 1667.71 631.8 1646.45 631.8 1621.76 608.73 1589.96 627.06 1519.7 627.06 1495.2 606.44 1463.25 629.44 1354.45 629.44 1337.55 606.84 1307.04 630.42 1293.44 557.85 1287.38 626.82 1261.15 629.55 1241.6 613.57 1229.91 622.29 1196.76 622.29 1196.76 616.78"/>
      </g>
    </g>
  </g>
</svg>